PathFileType	4	(X/Y/Z)	E:\Qualisys_Data\Carbon_Farble_Plate\Data\Amateur_Runner\S2\T1\S2T1V11_c3d.trc
DataRate	CameraRate	NumFrames	NumMarkers	Units	OrigDataRate	OrigDataStartFrame	OrigNumFrames
200.000000	200.000000	4	39	mm	200.000000	123	328
Frame#	Time	LSHO			RSHO			LICST			RICST			LASIS			LHEEL			RASIS			LTROC			RTROC			SACR			LTH1			LSK4			LTH2			LTH3			RHM5			LSK2			LTH4			RTH1			LTOE			RTH2			RTH3			RTH4			LLEP			RLEP			LSK1			LSK3			RSK1			LHM5			RSK2			LFT1			RSK3			RSK4			LLME			RLME			RTOE			RHEEL			RFT1			RFT2			LFT2			
		X1	Y1	Z1	X2	Y2	Z2	X3	Y3	Z3	X4	Y4	Z4	X5	Y5	Z5	X6	Y6	Z6	X7	Y7	Z7	X8	Y8	Z8	X9	Y9	Z9	X10	Y10	Z10	X11	Y11	Z11	X12	Y12	Z12	X13	Y13	Z13	X14	Y14	Z14	X15	Y15	Z15	X16	Y16	Z16	X17	Y17	Z17	X18	Y18	Z18	X19	Y19	Z19	X20	Y20	Z20	X21	Y21	Z21	X22	Y22	Z22	X23	Y23	Z23	X24	Y24	Z24	X25	Y25	Z25	X26	Y26	Z26	X27	Y27	Z27	X28	Y28	Z28	X29	Y29	Z29	X30	Y30	Z30	X31	Y31	Z31	X32	Y32	Z32	X33	Y33	Z33	X34	Y34	Z34	X35	Y35	Z35	X36	Y36	Z36	X37	Y37	Z37	X38	Y38	Z38	X39	Y39	Z39	

124	0.615	-948.786376953125	1398.867797851562	-494.8397827148438	-931.7811279296876	1394.412231445312	-171.2030487060547	-1019.908813476562	945.160888671875	-456.3152465820312	-987.57861328125	938.6924438476562	-150.8577880859375	-960.4197998046876	898.8117065429688	-443.3703308105469	-1295.39794921875	124.1562805175781	-306.8418273925781	-928.8082885742188	893.6119995117188	-181.3463134765625	-1091.93408203125	825.8101806640625	-440.9718017578125	-1065.243041992188	832.5631713867188	-140.5875091552734	-1092.10693359375	986.3308715820312	-295.918701171875	-955.7595825195312	584.8401489257812	-452.1658325195312	-1154.821655273438	271.9764404296875	-403.8445129394531	-1035.570434570312	578.3848876953125	-447.0071105957031	-946.0357055664062	484.5371704101562	-423.1033935546875	-1178.731323242188	196.6047515869141	-148.868408203125	-1094.716186523438	350.3153991699219	-425.5521545410156	-1030.3896484375	481.7974548339844	-417.2517395019531	-828.5596923828125	626.0835571289062	-137.1209411621094	-1063.704345703125	63.77858352661133	-336.2872924804688	-902.785888671875	597.0010375976562	-127.5400314331055	-795.1176147460938	531.0283813476562	-153.6865844726562	-873.1547241210938	503.9291076660156	-147.9346466064453	-990.607177734375	435.232421875	-418.3251647949219	-838.6565551757812	485.765625	-142.6958160400391	-1032.115844726562	304.8192138671875	-410.1206665039062	-1091.970581054688	226.7041778564453	-392.6885375976562	-910.6659545898438	402.8102722167969	-149.7004241943359	-1120.411865234375	58.09120178222656	-399.2096862792969	-939.5947265625	478.3046264648438	-142.1990509033203	-1287.854248046875	94.56163024902344	-281.2098083496094	-1005.336120605469	366.4235534667969	-157.3012237548828	-1031.669189453125	441.5793151855469	-153.3746795654297	-1231.619873046875	119.8301086425781	-367.4935913085938	-1189.508056640625	334.7423706054688	-179.6539306640625	-1136.2109375	153.8936309814453	-209.5922393798828	-1229.888061523438	380.1257934570312	-237.1151428222656	-1245.39990234375	354.0243225097656	-268.3225402832031	-1253.124145507812	368.7871704101562	-211.7784423828125	-1301.694213867188	96.84920501708984	-333.0836791992188
125	0.62	-930.9196166992188	1402.8564453125	-493.6766357421875	-917.7876586914062	1397.942626953125	-170.3635101318359	-1002.166687011719	947.6182861328124	-456.460693359375	-971.179443359375	942.8614501953124	-151.2965087890625	-943.156494140625	900.6468505859375	-442.9700317382812	-1292.703857421875	128.7926330566406	-307.7705078125	-912.5610961914062	897.3554077148438	-181.4874725341797	-1076.1708984375	828.894775390625	-440.0531616210938	-1048.319702148438	837.189453125	-140.1516723632812	-1075.288330078125	989.6898193359376	-296.9613647460938	-946.4147338867188	586.9927368164062	-451.3784790039062	-1151.68115234375	274.7052307128906	-404.2805786132812	-1026.9296875	582.2452392578125	-446.6824951171875	-939.18359375	486.3654174804688	-423.7835388183594	-1143.76904296875	191.0407409667969	-149.6606903076172	-1091.6240234375	353.2805786132812	-425.7822875976562	-1023.405456542969	485.8633117675781	-417.4136962890625	-809.2950439453125	633.5941162109375	-137.2989196777344	-1063.407470703125	63.83529281616211	-336.0807800292969	-883.0093994140625	602.3924560546875	-128.1598052978516	-774.0767822265625	539.1647338867188	-154.7216949462891	-851.483642578125	510.9084777832031	-148.2274475097656	-986.1395874023438	438.0483093261719	-418.662841796875	-816.6689453125	492.7591552734375	-143.7748413085938	-1028.869384765625	307.281494140625	-411.1210327148438	-1089.105102539062	229.2933959960938	-393.2735595703125	-886.2771606445312	406.3284912109375	-150.9320983886719	-1119.240966796875	58.44433212280273	-399.0908508300781	-917.7631225585938	481.1652526855469	-143.0296325683594	-1286.4609375	99.72996520996094	-282.2790832519531	-979.417236328125	366.997802734375	-158.2746429443359	-1008.135131835938	441.0418395996094	-154.1174468994141	-1229.117309570312	123.005126953125	-368.1855163574219	-1162.535034179688	328.1605529785156	-180.6200714111328	-1099.163208007812	150.8782653808594	-209.7303924560547	-1207.208740234375	370.9665832519531	-237.3908996582031	-1219.544799804688	343.5978698730469	-268.8805236816406	-1227.752807617188	358.4479064941406	-213.2624359130859	-1299.718872070312	100.791633605957	-333.7081604003906
126	0.625	-912.9879760742188	1407.18994140625	-492.7140502929688	-903.9260864257812	1401.625	-169.4375305175781	-983.9951171875	950.6084594726562	-456.8336181640625	-954.8306884765624	947.1652221679688	-151.530029296875	-926.2859497070312	903.7341918945312	-443.2707824707031	-1290.53857421875	133.823486328125	-309.5142517089844	-896.2870483398438	901.680908203125	-181.7518157958984	-1060.325561523438	832.6143798828125	-439.5675964355469	-1031.139770507812	841.9344482421875	-139.1266937255859	-1058.553588867188	992.9906616210938	-298.5176696777344	-936.538818359375	589.70166015625	-450.4260559082031	-1148.633178710938	278.713623046875	-405.0963439941406	-1017.417724609375	586.9977416992188	-446.2295532226562	-932.881591796875	488.5590515136719	-423.2434692382812	-1109.116943359375	185.9168548583984	-150.2155456542969	-1088.376708984375	356.8108825683594	-426.1081848144531	-1016.431579589844	489.9111633300781	-417.4805297851562	-790.546142578125	640.9253540039062	-137.3542327880859	-1062.7568359375	63.09627151489258	-335.3248291015625	-863.4534301757812	608.6524658203125	-128.5924682617188	-753.2418823242188	547.5757446289062	-155.2499694824219	-829.5922241210938	517.8467407226562	-148.5641632080078	-981.0166625976562	441.0677490234375	-418.68798828125	-794.7222900390625	500.2376403808594	-144.1396179199219	-1025.305541992188	310.4334411621094	-411.7428283691406	-1085.973510742188	232.8867340087891	-394.5728149414062	-861.4266967773438	410.9866638183594	-149.8856201171875	-1119.286743164062	58.80403518676758	-399.197265625	-896.3643188476562	483.5584106445312	-143.6992340087891	-1283.923095703125	105.2759094238281	-282.8340454101562	-953.546875	367.2436218261719	-158.8631286621094	-985.0716552734376	440.5072631835938	-154.7810516357422	-1226.638793945312	126.7694778442383	-369.4008178710938	-1134.530639648438	321.0734252929688	-181.4394226074219	-1062.098754882812	148.2476654052734	-210.0725708007812	-1181.713012695312	361.5212097167969	-238.7369537353516	-1192.75146484375	333.7785949707031	-270.392578125	-1201.786254882812	348.40576171875	-214.3451690673828	-1297.531494140625	105.4673843383789	-335.3456115722656
127	0.63	-895.23828125	1411.543212890625	-491.3747253417969	-889.7986450195312	1405.865112304688	-168.4152221679688	-965.6842651367188	953.483154296875	-456.8132629394531	-938.1510620117188	951.2660522460938	-151.7838745117188	-908.4763793945312	906.2410888671876	-443.2055969238281	-1287.439453125	138.2063446044922	-311.6070251464844	-879.8427124023438	906.3075561523438	-181.7987060546875	-1043.980590820312	836.6200561523438	-439.4621887207031	-1014.094116210938	846.9783325195312	-138.5687103271484	-1041.752075195312	996.803955078125	-299.5950317382812	-926.4343872070312	592.4210205078125	-449.5504760742188	-1144.920043945312	283.0568237304688	-405.7117309570312	-1007.746643066406	591.8343505859375	-445.7327270507812	-925.796142578125	491.0294189453125	-422.9130554199219	-1074.125732421875	181.0364074707031	-149.9710540771484	-1084.282470703125	361.2455749511719	-426.6475524902344	-1009.544372558594	494.6711730957031	-417.8660278320312	-771.421630859375	648.2254638671875	-137.8431243896484	-1062.7158203125	63.84169387817383	-335.765625	-843.6334838867188	614.9489135742188	-128.2128143310547	-732.621337890625	555.4492797851562	-156.0070343017578	-808.8812255859375	524.4906616210938	-148.8326721191406	-975.6858520507812	444.9791259765625	-418.9568176269531	-773.5917358398438	506.8208923339844	-144.7993927001953	-1021.895751953125	314.8696899414062	-413.0888061523438	-1082.743896484375	236.7208099365234	-395.8266906738281	-837.5938720703125	415.1511840820312	-150.4358825683594	-1118.584106445312	59.51131057739258	-398.8753356933594	-875.2003784179688	486.069091796875	-144.3902130126953	-1281.880859375	110.2312622070312	-284.2799682617188	-928.0528564453124	367.5663757324219	-159.5960235595703	-962.4281005859376	439.4978332519531	-155.3582153320312	-1224.546508789062	130.9583129882812	-370.6866760253906	-1107.448608398438	313.8026123046875	-183.1257934570312	-1024.869995117188	145.0409088134766	-209.9490814208984	-1156.7783203125	352.6321716308594	-240.485107421875	-1165.991333007812	323.1564636230469	-271.6589050292969	-1175.623291015625	337.5356750488281	-215.5601501464844	-1296.069091796875	110.2964706420898	-336.7907104492188
